<svg width="80" height="80" viewBox="0 0 80 80" fill="none" xmlns="http://www.w3.org/2000/svg">
<path fill-rule="evenodd" clip-rule="evenodd" d="M40.0003 1.875C18.4294 1.875 0.9375 19.3636 0.9375 40.9378C0.9375 58.1968 12.1302 72.8392 27.651 78.0044C29.6033 78.366 30.32 77.157 30.32 76.1253C30.32 75.1938 30.2838 72.1167 30.267 68.8526C19.3996 71.2156 17.1065 64.2437 17.1065 64.2437C15.3296 59.7286 12.7693 58.528 12.7693 58.528C9.22512 56.1035 13.0364 56.1534 13.0364 56.1534C16.959 56.4289 19.0245 60.1788 19.0245 60.1788C22.5085 66.1506 28.1627 64.4242 30.3918 63.4261C30.7424 60.9013 31.7547 59.1781 32.8719 58.2026C24.1955 57.2149 15.0747 53.8654 15.0747 38.8976C15.0747 34.6328 16.6007 31.1482 19.0995 28.4126C18.6939 27.4287 17.3568 23.4557 19.4779 18.0751C19.4779 18.0751 22.7582 17.0252 30.223 22.0792C33.3389 21.2136 36.6806 20.7796 40.0003 20.7647C43.32 20.7796 46.6643 21.2136 49.7861 22.0792C57.2418 17.0252 60.5176 18.0751 60.5176 18.0751C62.6438 23.4557 61.3061 27.4287 60.9005 28.4126C63.4052 31.1482 64.9208 34.6328 64.9208 38.8976C64.9208 53.901 55.7825 57.2045 47.0841 58.1716C48.4852 59.3838 49.7337 61.761 49.7337 65.4055C49.7337 70.6321 49.6884 74.8387 49.6884 76.1253C49.6884 77.1648 50.3915 78.3828 52.3716 77.9993C67.884 72.8282 79.0625 58.191 79.0625 40.9378C79.0625 19.3636 61.5732 1.875 40.0003 1.875ZM15.5678 57.5208C15.4818 57.7149 15.1764 57.7731 14.8983 57.6398C14.615 57.5124 14.4558 57.2478 14.5477 57.0531C14.6318 56.8533 14.9378 56.7976 15.2204 56.9315C15.5044 57.059 15.6661 57.3261 15.5678 57.5208ZM17.4893 59.2353C17.303 59.408 16.9388 59.3278 16.6917 59.0548C16.4362 58.7825 16.3883 58.4183 16.5772 58.243C16.7693 58.0703 17.1225 58.1512 17.3786 58.4235C17.6342 58.6991 17.684 59.0607 17.4893 59.2353ZM18.8074 61.4289C18.5681 61.5952 18.1768 61.4393 17.9348 61.0919C17.6955 60.7446 17.6955 60.328 17.94 60.1611C18.1826 59.9942 18.5681 60.1443 18.8133 60.489C19.052 60.8422 19.052 61.2588 18.8074 61.4289ZM21.0368 63.9695C20.8227 64.2056 20.3666 64.1422 20.0329 63.82C19.6913 63.505 19.5962 63.058 19.811 62.8219C20.0277 62.5852 20.4863 62.6518 20.8227 62.9714C21.1616 63.2857 21.2651 63.736 21.0368 63.9695ZM23.918 64.8271C23.8236 65.1331 23.3843 65.2722 22.9419 65.1422C22.5001 65.0083 22.2109 64.6499 22.3002 64.3407C22.3921 64.0328 22.8332 63.8879 23.2789 64.027C23.7201 64.1602 24.0099 64.516 23.918 64.8271ZM27.1969 65.1909C27.2079 65.5131 26.8328 65.7802 26.3683 65.786C25.9013 65.7964 25.5235 65.5357 25.5183 65.2187C25.5183 64.8934 25.8851 64.6288 26.3521 64.621C26.8166 64.612 27.1969 64.8707 27.1969 65.1909ZM30.4181 65.0675C30.4738 65.3818 30.151 65.7046 29.6898 65.7906C29.2363 65.8734 28.8165 65.6794 28.7589 65.3676C28.7027 65.0455 29.0313 64.7227 29.4841 64.6392C29.9459 64.559 30.3593 64.7479 30.4181 65.0675Z" fill="white"/>
</svg>
