<svg width="336" height="336" viewBox="0 0 336 336" fill="none" xmlns="http://www.w3.org/2000/svg">
<g clip-path="url(#clip0_126_577)">
<g filter="url(#filter0_d_126_577)">
<path d="M118 62L118 87H93L118 62Z" fill="#0A0B0E"/>
<path d="M168 12L168 37H143L168 12Z" fill="#0A0B0E"/>
<path d="M143 37L143 62H118L143 37Z" fill="#0A0B0E"/>
<path d="M118 87L118 62H143L118 87Z" fill="#0A0B0E"/>
<path d="M143 62L143 87H118L143 62Z" fill="#0A0B0E"/>
<path d="M168 37L168 62H143L168 37Z" fill="#0A0B0E"/>
<path d="M143 87L143 62H168L143 87Z" fill="#0A0B0E"/>
<path d="M143 62L143 37H168L143 62Z" fill="#0A0B0E"/>
<path d="M218 62L218 87H243L218 62Z" fill="#0A0B0E"/>
<path d="M168 12L168 37H193L168 12Z" fill="#0A0B0E"/>
<path d="M193 37L193 62H218L193 37Z" fill="#0A0B0E"/>
<path d="M218 87L218 62H193L218 87Z" fill="#0A0B0E"/>
<path d="M193 62L193 87H218L193 62Z" fill="#0A0B0E"/>
<path d="M168 37L168 62H193L168 37Z" fill="#0A0B0E"/>
<path d="M193 87L193 62H168L193 87Z" fill="#0A0B0E"/>
<path d="M193 62L193 37H168L193 62Z" fill="#0A0B0E"/>
<path d="M118 274L118 249H93L118 274Z" fill="#0A0B0E"/>
<path d="M168 324L168 299H143L168 324Z" fill="#0A0B0E"/>
<path d="M143 299L143 274H118L143 299Z" fill="#0A0B0E"/>
<path d="M118 249L118 274H143L118 249Z" fill="#0A0B0E"/>
<path d="M143 274L143 249H118L143 274Z" fill="#0A0B0E"/>
<path d="M168 299L168 274H143L168 299Z" fill="#0A0B0E"/>
<path d="M143 249L143 274H168L143 249Z" fill="#0A0B0E"/>
<path d="M143 274L143 299H168L143 274Z" fill="#0A0B0E"/>
<path d="M218 274L218 249H243L218 274Z" fill="#0A0B0E"/>
<path d="M168 324L168 299H193L168 324Z" fill="#0A0B0E"/>
<path d="M193 299L193 274H218L193 299Z" fill="#0A0B0E"/>
<path d="M218 249L218 274H193L218 249Z" fill="#0A0B0E"/>
<path d="M193 274L193 249H218L193 274Z" fill="#0A0B0E"/>
<path d="M168 299L168 274H193L168 299Z" fill="#0A0B0E"/>
<path d="M193 249L193 274H168L193 249Z" fill="#0A0B0E"/>
<path d="M193 274L193 299H168L193 274Z" fill="#0A0B0E"/>
<path d="M68 130L93 130L93 155L68 130Z" fill="#AA3000"/>
<path d="M93 130L68 130L68 105L93 130Z" fill="#AA3000"/>
<path d="M168 130L193 130L193 155L168 130Z" fill="#AA3000"/>
<path d="M193 130L168 130L168 105L193 130Z" fill="#AA3000"/>
<path d="M118 130L93 130L93 105L118 130Z" fill="#AA3000"/>
<path d="M168 130L168 155H143L168 130Z" fill="#AA3000"/>
<path d="M168 155L143 155L143 180L168 155Z" fill="#AA3000"/>
<path d="M268 130L268 155H243L268 130Z" fill="#AA3000"/>
<path d="M268 155L243 155L243 180L268 155Z" fill="#AA3000"/>
<path d="M143 155L143 180H118L143 155Z" fill="#AA3000"/>
<path d="M143 180L118 180L118 205L143 180Z" fill="#AA3000"/>
<path d="M93 155L93 180H118L93 155Z" fill="#AA3000"/>
<path d="M93 180L118 180L118 205L93 180Z" fill="#AA3000"/>
<path d="M93 230L118 230L118 255L93 230Z" fill="#AA3000"/>
<path d="M143 230L118 230L118 255L143 230Z" fill="#AA3000"/>
<path d="M118 255L143 255L143 230L118 255Z" fill="#AA3000"/>
<path d="M168 230L143 230L143 255L168 230Z" fill="#AA3000"/>
<path d="M143 230L168 230L168 205L143 230Z" fill="#AA3000"/>
<path d="M243 230L218 230L218 255L243 230Z" fill="#AA3000"/>
<path d="M193 230L218 230L218 255L193 230Z" fill="#AA3000"/>
<path d="M218 255L193 255L193 230L218 255Z" fill="#AA3000"/>
<path d="M168 230L193 230L193 255L168 230Z" fill="#AA3000"/>
<path d="M193 230L168 230L168 205L193 230Z" fill="#AA3000"/>
<path d="M93 105L118 105L118 130L93 105Z" fill="#AA3000"/>
<path d="M193 105L218 105L218 130L193 105Z" fill="#AA3000"/>
<path d="M218 130L193 130L193 105L218 130Z" fill="#AA3000"/>
<path d="M143 130L118 130L118 105L143 130Z" fill="#AA3000"/>
<path d="M243 130L218 130L218 105L243 130Z" fill="#AA3000"/>
<path d="M118 105L143 105L143 130L118 105Z" fill="#AA3000"/>
<path d="M218 105L243 105L243 130L218 105Z" fill="#AA3000"/>
<path d="M193 180L218 180L218 155L193 180Z" fill="#AA3000"/>
<path d="M218 180L193 180L193 205L218 180Z" fill="#AA3000"/>
<path d="M243 180L218 180L218 155L243 180Z" fill="#AA3000"/>
<path d="M93 230L68 230L68 205L93 230Z" fill="#AA3000"/>
<path d="M93 255L93 230L68 230L93 255Z" fill="#AA3000"/>
<path d="M243 230L268 230L268 205L243 230Z" fill="#AA3000"/>
<path d="M243 255L243 230L268 230L243 255Z" fill="#AA3000"/>
<path d="M243 230L243 255L218 255L243 230Z" fill="#AA3000"/>
<path d="M93 230L93 255L118 255L93 230Z" fill="#AA3000"/>
<path d="M218 155L243 155L243 180L218 155Z" fill="#AA3000"/>
<path d="M193 80L193 105L168 105L193 80Z" fill="#FF4800"/>
<path d="M243 80L243 105L218 105L243 80Z" fill="#FF4800"/>
<path d="M243 80L243 105L268 105L243 80Z" fill="#FF4800"/>
<path d="M218 105L218 80L243 80L218 105Z" fill="#FF4800"/>
<path d="M218 80L218 105L193 105L218 80Z" fill="#FF4800"/>
<path d="M193 105L193 80L218 80L193 105Z" fill="#FF4800"/>
<path d="M243 130L243 105L268 105L243 130Z" fill="#FF4800"/>
<path d="M243 155L243 130L268 130L243 155Z" fill="#FF4800"/>
<path d="M193 155L193 180L168 180L193 155Z" fill="#FF4800"/>
<path d="M193 180L193 155L218 155L193 180Z" fill="#FF4800"/>
<path d="M243 130L243 155H218L243 130Z" fill="#FF4800"/>
<path d="M168 205L168 180L193 180L168 205Z" fill="#FF4800"/>
<path d="M193 230L193 205L218 205L193 230Z" fill="#FF4800"/>
<path d="M218 230L218 205L243 205L218 230Z" fill="#FF4800"/>
<path d="M268 105L268 130L243 130L268 105Z" fill="#FF4800"/>
<path d="M193 180L193 205L168 205L193 180Z" fill="#FF4800"/>
<path d="M193 230L193 205L168 205L193 230Z" fill="#FF4800"/>
<path d="M218 205L218 230L193 230L218 205Z" fill="#FF4800"/>
<path d="M243 205L243 230L218 230L243 205Z" fill="#FF4800"/>
<path d="M243 230L243 205L268 205L243 230Z" fill="#FF4800"/>
<path d="M243 180L243 205L268 205L243 180Z" fill="#FF4800"/>
<path d="M193 130L193 105L168 105L193 130Z" fill="#FF4800"/>
<path d="M143 130L143 105L168 105L143 130Z" fill="#FF4800"/>
<path d="M143 80L143 105L168 105L143 80Z" fill="#FF4800"/>
<path d="M168 105L168 130L143 130L168 105Z" fill="#FF4800"/>
<path d="M143 155L143 130L168 130L143 155Z" fill="#FF4800"/>
<path d="M143 180L143 205L168 205L143 180Z" fill="#FF4800"/>
<path d="M168 205L168 180L143 180L168 205Z" fill="#FF4800"/>
<path d="M143 155L143 180L168 180L143 155Z" fill="#FF4800"/>
<path d="M93 80L93 105L68 105L93 80Z" fill="#FF4800"/>
<path d="M143 80L143 105L118 105L143 80Z" fill="#FF4800"/>
<path d="M143 205L143 230L118 230L143 205Z" fill="#FF4800"/>
<path d="M118 105L118 80L143 80L118 105Z" fill="#FF4800"/>
<path d="M118 230L118 205L143 205L118 230Z" fill="#FF4800"/>
<path d="M118 80L118 105L93 105L118 80Z" fill="#FF4800"/>
<path d="M118 205L118 230L93 230L118 205Z" fill="#FF4800"/>
<path d="M93 105L93 80L118 80L93 105Z" fill="#FF4800"/>
<path d="M93 230L93 205L118 205L93 230Z" fill="#FF4800"/>
<path d="M68 105L93 105L93 130L68 105Z" fill="#FF4800"/>
<path d="M143 230L143 205L168 205L143 230Z" fill="#FF4800"/>
<path d="M93 180L93 205L68 205L93 180Z" fill="#FF4800"/>
<path d="M68 205L93 205L93 230L68 205Z" fill="#FF4800"/>
<path d="M118 130L118 155H93L118 130Z" fill="#FF4800"/>
<path d="M118 130L118 155H143L118 130Z" fill="#FF4800"/>
<path d="M118 180L118 155H143L118 180Z" fill="#FF4800"/>
<path d="M118 180L118 155H93L118 180Z" fill="#FF4800"/>
</g>
</g>
<defs>
<filter id="filter0_d_126_577" x="56" y="4" width="224" height="336" filterUnits="userSpaceOnUse" color-interpolation-filters="sRGB">
<feFlood flood-opacity="0" result="BackgroundImageFix"/>
<feColorMatrix in="SourceAlpha" type="matrix" values="0 0 0 0 0 0 0 0 0 0 0 0 0 0 0 0 0 0 127 0" result="hardAlpha"/>
<feOffset dy="4"/>
<feGaussianBlur stdDeviation="6"/>
<feComposite in2="hardAlpha" operator="out"/>
<feColorMatrix type="matrix" values="0 0 0 0 0 0 0 0 0 0 0 0 0 0 0 0 0 0 0.25 0"/>
<feBlend mode="normal" in2="BackgroundImageFix" result="effect1_dropShadow_126_577"/>
<feBlend mode="normal" in="SourceGraphic" in2="effect1_dropShadow_126_577" result="shape"/>
</filter>
<clipPath id="clip0_126_577">
<rect width="336" height="336" fill="white"/>
</clipPath>
</defs>
</svg>
