<svg width="512" height="513" viewBox="0 0 512 513" fill="none" xmlns="http://www.w3.org/2000/svg">
<path d="M144.287 214.697C144.287 220.997 144.968 226.106 146.16 229.852C147.522 233.598 149.225 237.685 151.609 242.113C152.461 243.475 152.801 244.837 152.801 246.029C152.801 247.732 151.779 249.435 149.566 251.138L138.838 258.29C137.305 259.312 135.773 259.822 134.41 259.822C132.707 259.822 131.005 258.971 129.302 257.438C126.918 254.884 124.874 252.16 123.171 249.435C121.469 246.54 119.766 243.305 117.893 239.388C104.61 255.054 87.9222 262.888 67.8285 262.888C53.5245 262.888 42.1153 258.801 33.7713 250.627C25.4273 242.453 21.1702 231.555 21.1702 217.932C21.1702 203.458 26.2787 191.708 36.6662 182.853C47.0536 173.998 60.8468 169.571 78.3862 169.571C84.1759 169.571 90.1359 170.082 96.4365 170.933C102.737 171.785 109.208 173.147 116.019 174.679V162.249C116.019 149.307 113.295 140.282 108.016 135.003C102.567 129.724 93.3714 127.17 80.2593 127.17C74.2993 127.17 68.1691 127.851 61.8685 129.383C55.5679 130.916 49.4376 132.789 43.4776 135.173C40.753 136.365 38.7096 137.046 37.5176 137.387C36.3256 137.727 35.4742 137.898 34.793 137.898C32.409 137.898 31.217 136.195 31.217 132.619V124.275C31.217 121.55 31.5576 119.507 32.409 118.315C33.2605 117.123 34.793 115.931 37.177 114.739C43.137 111.674 50.289 109.119 58.633 107.076C66.9771 104.862 75.8319 103.841 85.1976 103.841C105.462 103.841 120.277 108.438 129.813 117.634C139.178 126.829 143.946 140.793 143.946 159.524V214.697H144.287ZM75.1508 240.58C80.7702 240.58 86.5599 239.558 92.6902 237.515C98.8205 235.472 104.27 231.725 108.867 226.617C111.592 223.381 113.635 219.805 114.657 215.718C115.679 211.632 116.36 206.693 116.36 200.903V193.751C111.422 192.559 106.143 191.538 100.694 190.857C95.2445 190.175 89.9656 189.835 84.6868 189.835C73.2776 189.835 64.9336 192.049 59.3142 196.646C53.6948 201.244 50.9702 207.715 50.9702 216.229C50.9702 224.233 53.0136 230.193 57.2708 234.28C61.3576 238.537 67.3176 240.58 75.1508 240.58ZM211.89 258.971C208.825 258.971 206.782 258.46 205.419 257.268C204.057 256.246 202.865 253.862 201.843 250.627L161.826 118.996C160.805 115.59 160.294 113.377 160.294 112.185C160.294 109.46 161.656 107.927 164.381 107.927H181.069C184.304 107.927 186.518 108.438 187.71 109.63C189.072 110.652 190.094 113.036 191.115 116.271L219.723 229.001L246.288 116.271C247.139 112.866 248.161 110.652 249.523 109.63C250.886 108.609 253.27 107.927 256.335 107.927H269.958C273.193 107.927 275.407 108.438 276.769 109.63C278.131 110.652 279.323 113.036 280.005 116.271L306.91 230.363L336.369 116.271C337.391 112.866 338.583 110.652 339.775 109.63C341.137 108.609 343.351 107.927 346.416 107.927H362.253C364.977 107.927 366.51 109.29 366.51 112.185C366.51 113.036 366.34 113.887 366.169 114.909C365.999 115.931 365.658 117.293 364.977 119.166L323.938 250.797C322.917 254.203 321.725 256.417 320.362 257.438C319 258.46 316.786 259.141 313.892 259.141H299.247C296.012 259.141 293.798 258.63 292.435 257.438C291.073 256.246 289.881 254.033 289.2 250.627L262.806 140.793L236.582 250.457C235.73 253.862 234.709 256.076 233.346 257.268C231.984 258.46 229.6 258.971 226.535 258.971H211.89ZM430.708 263.569C421.853 263.569 412.998 262.547 404.484 260.504C395.969 258.46 389.328 256.246 384.901 253.692C382.176 252.16 380.303 250.457 379.622 248.924C378.941 247.392 378.6 245.689 378.6 244.156V235.472C378.6 231.896 379.962 230.193 382.517 230.193C383.538 230.193 384.56 230.363 385.582 230.704C386.604 231.044 388.136 231.725 389.839 232.406C395.629 234.961 401.929 237.004 408.57 238.366C415.382 239.729 422.023 240.41 428.834 240.41C439.562 240.41 447.906 238.537 453.696 234.79C459.486 231.044 462.551 225.595 462.551 218.613C462.551 213.845 461.018 209.929 457.953 206.693C454.888 203.458 449.098 200.563 440.754 197.838L416.063 190.175C403.632 186.259 394.437 180.469 388.817 172.806C383.198 165.314 380.303 156.97 380.303 148.115C380.303 140.963 381.836 134.662 384.901 129.213C387.966 123.764 392.053 118.996 397.161 115.25C402.27 111.333 408.06 108.438 414.871 106.395C421.682 104.351 428.834 103.5 436.327 103.5C440.073 103.5 443.99 103.67 447.736 104.181C451.653 104.692 455.229 105.373 458.805 106.054C462.21 106.906 465.446 107.757 468.511 108.779C471.576 109.801 473.96 110.822 475.663 111.844C478.047 113.206 479.75 114.569 480.772 116.101C481.793 117.463 482.304 119.337 482.304 121.721V129.724C482.304 133.3 480.942 135.173 478.388 135.173C477.025 135.173 474.812 134.492 471.917 133.13C462.21 128.702 451.312 126.489 439.222 126.489C429.516 126.489 421.853 128.021 416.574 131.257C411.295 134.492 408.57 139.43 408.57 146.412C408.57 151.18 410.273 155.267 413.679 158.502C417.085 161.738 423.385 164.973 432.41 167.868L456.591 175.531C468.852 179.447 477.706 184.897 482.985 191.878C488.264 198.86 490.818 206.864 490.818 215.718C490.818 223.041 489.286 229.682 486.391 235.472C483.326 241.261 479.239 246.37 473.96 250.457C468.681 254.714 462.381 257.779 455.058 259.993C447.396 262.377 439.392 263.569 430.708 263.569Z" fill="#575858"/>
<path d="M462.891 346.328C406.867 387.707 325.471 409.674 255.483 409.674C157.399 409.674 69.0203 373.403 2.26824 313.122C-3.01062 308.354 1.75738 301.883 8.05795 305.629C80.2591 347.52 169.319 372.892 261.443 372.892C323.598 372.892 391.882 359.95 454.718 333.386C464.083 329.129 472.087 339.516 462.891 346.328ZM486.221 319.763C479.069 310.568 438.881 315.336 420.66 317.549C415.211 318.23 414.36 313.462 419.298 309.886C451.312 287.409 503.93 293.88 510.061 301.372C516.191 309.035 508.358 361.653 478.387 386.856C473.79 390.772 469.362 388.729 471.406 383.62C478.217 366.762 493.373 328.788 486.221 319.763Z" fill="#575858"/>
</svg>
