<svg width="512" height="513" viewBox="0 0 512 513" fill="none" xmlns="http://www.w3.org/2000/svg">
<path fill-rule="evenodd" clip-rule="evenodd" d="M30 0.5L71.0864 461.316L255.464 512.5L440.344 461.241L481.474 0.5H30ZM405.323 432.248L256.116 473.295L256.116 414.643L255.667 414.749L139.698 382.639L131.78 293.958H188.518L192.637 338.973L255.68 355.903L256.116 355.837V264.612L128.996 264.612L124.047 208.178L256.116 151.652L256.116 147.748H119.021L114.013 91.3141H255.543H256.116L256.116 38.8764H440.282L405.323 432.248Z" fill="#575858"/>
<path fill-rule="evenodd" clip-rule="evenodd" d="M265.226 147.748L256.116 151.652V208.178L256.116 264.612H325.138L318.864 338.396L256.116 355.886V414.687L371.7 382.577L386.921 208.178L256.116 208.178L392.052 147.748L396.906 91.314H256.116V147.041V147.748H265.226Z" fill="#575858"/>
</svg>
