<svg width="512" height="513" viewBox="0 0 512 513" fill="none" xmlns="http://www.w3.org/2000/svg">
<path d="M399.109 144.497L410.158 152.497C429.373 167.996 440.422 185.495 442.824 205.495C463.481 201.495 489.902 204.495 501.431 212.494L512 218.994L510.078 222.994C506.716 230.494 505.755 232.494 505.275 233.493C486.539 270.992 449.55 271.492 432.256 270.992C388.541 380.488 295.346 440.985 169.484 440.985C111.357 440.985 67.1618 422.486 37.3778 385.987C-2.01394 337.989 -2.01394 275.492 1.34877 255.493L2.30954 251.493H349.629C367.884 251.493 381.815 246.493 388.541 242.493C381.335 231.494 378.933 218.994 378.452 211.994C377.011 191.995 381.815 170.996 391.423 155.997L399.109 144.497ZM92.6223 191.495V241.493H39.7797V191.495H92.6223ZM155.073 191.495V241.493H102.23V191.495H155.073ZM217.523 191.495V241.493H164.68V191.495H217.523ZM279.973 191.495V241.493H227.131V191.495H279.973ZM342.423 191.495V241.493H289.581V191.495H342.423ZM279.973 131.498V181.496H227.131V131.498H279.973ZM217.523 131.498V181.496H164.68V131.498H217.523ZM155.073 131.498V181.496H102.23V131.498H155.073ZM279.973 71.5V121.498H227.131V71.5H279.973Z" fill="#575858"/>
</svg>
