<svg width="512" height="513" viewBox="0 0 512 513" fill="none" xmlns="http://www.w3.org/2000/svg">
<g clip-path="url(#clip0_86_34)">
<path d="M171.333 512.5C218.437 512.5 256.667 474.271 256.667 427.167V341.833H171.333C124.229 341.833 86 380.063 86 427.167C86 474.271 124.229 512.5 171.333 512.5Z" fill="#575858"/>
<path d="M86 256.5C86 209.396 124.229 171.167 171.333 171.167H256.667V341.833H171.333C124.229 341.833 86 303.604 86 256.5Z" fill="#575858"/>
<path d="M86 85.8333C86 38.7293 124.229 0.5 171.333 0.5H256.667V171.167H171.333C124.229 171.167 86 132.937 86 85.8333Z" fill="#575858"/>
<path d="M256.667 0.5H342C389.104 0.5 427.333 38.7293 427.333 85.8333C427.333 132.937 389.104 171.167 342 171.167H256.667V0.5Z" fill="#575858"/>
<path d="M427.333 256.5C427.333 303.604 389.104 341.833 342 341.833C294.896 341.833 256.667 303.604 256.667 256.5C256.667 209.396 294.896 171.167 342 171.167C389.104 171.167 427.333 209.396 427.333 256.5Z" fill="#575858"/>
</g>
<defs>
<clipPath id="clip0_86_34">
<rect width="512" height="512" fill="white" transform="translate(0 0.5)"/>
</clipPath>
</defs>
</svg>
