<svg width="512" height="513" viewBox="0 0 512 513" fill="none" xmlns="http://www.w3.org/2000/svg">
<path fill-rule="evenodd" clip-rule="evenodd" d="M256.002 12.5C117.948 12.5 6 124.427 6 262.502C6 372.96 77.6332 466.671 176.967 499.728C189.461 502.043 194.048 494.305 194.048 487.702C194.048 481.74 193.816 462.047 193.709 441.157C124.158 456.28 109.482 411.66 109.482 411.66C98.1093 382.763 81.7234 375.079 81.7234 375.079C59.0408 359.563 83.4332 359.882 83.4332 359.882C108.538 361.645 121.757 385.644 121.757 385.644C144.054 423.864 180.241 412.815 194.508 406.427C196.751 390.269 203.23 379.24 210.38 372.997C154.851 366.675 96.4782 345.239 96.4782 249.445C96.4782 222.15 106.244 199.848 122.237 182.341C119.641 176.044 111.084 150.616 124.659 116.18C124.659 116.18 145.652 109.461 193.427 141.807C213.369 136.267 234.756 133.489 256.002 133.394C277.248 133.489 298.652 136.267 318.631 141.807C366.348 109.461 387.312 116.18 387.312 116.18C400.92 150.616 392.359 176.044 389.763 182.341C405.793 199.848 415.493 222.15 415.493 249.445C415.493 345.466 357.008 366.609 301.338 372.798C310.306 380.556 318.296 395.771 318.296 419.095C318.296 452.546 318.006 479.467 318.006 487.702C318.006 494.355 322.506 502.15 335.178 499.695C434.458 466.601 506 372.922 506 262.502C506 124.427 394.069 12.5 256.002 12.5ZM99.6339 368.633C99.0833 369.875 97.1292 370.248 95.3491 369.395C93.5358 368.579 92.5174 366.886 93.1052 365.64C93.6434 364.361 95.6016 364.005 97.4108 364.862C99.2282 365.677 100.263 367.387 99.6339 368.633ZM111.931 379.606C110.739 380.711 108.408 380.198 106.827 378.451C105.191 376.708 104.885 374.377 106.094 373.255C107.323 372.15 109.584 372.667 111.223 374.41C112.859 376.174 113.177 378.488 111.931 379.606ZM120.368 393.645C118.836 394.709 116.331 393.711 114.783 391.488C113.251 389.265 113.251 386.599 114.816 385.531C116.368 384.463 118.836 385.423 120.405 387.63C121.933 389.89 121.933 392.556 120.368 393.645ZM134.635 409.905C133.265 411.416 130.347 411.01 128.21 408.948C126.024 406.932 125.416 404.071 126.79 402.56C128.177 401.045 131.112 401.472 133.265 403.517C135.434 405.529 136.097 408.41 134.635 409.905ZM153.075 415.394C152.471 417.352 149.66 418.242 146.828 417.41C144.001 416.553 142.15 414.259 142.721 412.28C143.309 410.31 146.133 409.382 148.985 410.273C151.808 411.125 153.663 413.402 153.075 415.394ZM174.06 417.722C174.131 419.784 171.73 421.493 168.757 421.531C165.768 421.597 163.35 419.929 163.317 417.9C163.317 415.818 165.665 414.124 168.654 414.075C171.626 414.017 174.06 415.673 174.06 417.722ZM194.676 416.932C195.032 418.944 192.966 421.01 190.014 421.56C187.112 422.09 184.426 420.848 184.057 418.853C183.697 416.791 185.8 414.725 188.698 414.191C191.654 413.678 194.299 414.887 194.676 416.932Z" fill="#575858"/>
</svg>
