<svg width="512" height="513" viewBox="0 0 512 513" fill="none" xmlns="http://www.w3.org/2000/svg">
<g clip-path="url(#clip0_86_203)">
<path fill-rule="evenodd" clip-rule="evenodd" d="M299.582 59.1743L404.861 119.959C407.826 116.819 411.288 114.046 415.216 111.765C437.051 99.213 464.9 106.665 477.582 128.5C490.134 150.335 482.681 178.183 460.847 190.866C456.948 193.107 452.854 194.71 448.687 195.707V317.324C452.809 318.324 456.859 319.917 460.716 322.134C482.681 334.817 490.134 362.665 477.451 384.5C464.9 406.335 436.92 413.787 415.086 401.235C410.739 398.737 406.962 395.626 403.799 392.074L299.162 452.488C300.658 457.008 301.468 461.843 301.468 466.87C301.468 491.973 281.071 512.5 255.837 512.5C230.604 512.5 210.207 492.104 210.207 466.87C210.207 462.384 210.852 458.052 212.053 453.959L106.802 393.191C103.87 396.27 100.455 398.99 96.5893 401.235C74.624 413.787 46.7752 406.335 34.2236 384.5C21.672 362.665 29.1245 334.817 50.959 322.134C54.8196 319.915 58.8681 318.321 62.9876 317.322V195.707C58.8205 194.71 54.7264 193.107 50.8283 190.866C28.9938 178.314 21.5413 150.335 34.0928 128.5C46.6444 106.665 74.624 99.213 96.4585 111.765C100.365 114.034 103.812 116.789 106.765 119.908L212.073 59.1067C210.859 54.9949 210.207 50.6398 210.207 46.1302C210.207 20.8963 230.604 0.5 255.837 0.5C281.071 0.5 301.468 20.8963 301.468 46.1302C301.468 50.6645 300.809 55.0426 299.582 59.1743ZM288.613 77.9022L394.143 138.832C390.881 150.288 392.078 162.992 398.481 174.13C404.905 185.305 415.37 192.713 426.984 195.599V317.368C426.392 317.514 425.803 317.671 425.217 317.839L287.388 79.1193C287.804 78.7213 288.213 78.3155 288.613 77.9022ZM224.316 79.1469L86.489 317.863C85.8931 317.69 85.2938 317.529 84.6914 317.38V195.599C96.3053 192.713 106.77 185.305 113.194 174.13C119.61 162.97 120.799 150.238 117.513 138.764L223.012 77.8514C223.438 78.2919 223.873 78.7238 224.316 79.1469ZM268.587 89.9614L406.383 328.623C403.299 331.563 400.581 334.99 398.35 338.87C396.133 342.727 394.54 346.776 393.54 350.898H118.137C117.138 346.779 115.544 342.73 113.325 338.87C111.085 335.014 108.373 331.607 105.305 328.68L243.126 89.9725C247.16 91.1367 251.425 91.7605 255.837 91.7605C260.264 91.7605 264.542 91.1328 268.587 89.9614ZM289.582 436.129L394.427 375.595C394.112 374.607 393.831 373.609 393.584 372.602H118.079C117.933 373.194 117.775 373.782 117.606 374.368L222.964 435.198C231.26 426.589 242.914 421.24 255.837 421.24C269.22 421.24 281.242 426.976 289.582 436.129Z" fill="#575858"/>
</g>
<defs>
<clipPath id="clip0_86_203">
<rect width="512" height="512" fill="white" transform="translate(0 0.5)"/>
</clipPath>
</defs>
</svg>
