<svg width="512" height="513" viewBox="0 0 512 513" fill="none" xmlns="http://www.w3.org/2000/svg">
<g clip-path="url(#clip0_86_108)">
<path fill-rule="evenodd" clip-rule="evenodd" d="M30 0.5L71.0852 461.319L255.451 512.5L440.327 461.247L481.456 0.5H30ZM405.116 431.908L255.728 473.324V414.674L255.468 414.746L139.696 382.607L131.778 293.866H188.512L192.536 338.942L255.48 355.938L255.532 355.924V414.719L371.396 382.607L385.527 224.266L386.906 209.09H255.728V151.215H392.049L397.11 94.6969H255.728V38.1788H440.263L405.116 431.908ZM255.532 94.6969H114.009L129.252 265.607H255.532V209.09H180.94L175.775 151.215H255.532V94.6969ZM318.567 338.906L255.728 355.866V265.607H325.127L318.567 338.906Z" fill="#575858"/>
</g>
<defs>
<clipPath id="clip0_86_108">
<rect width="512" height="512" fill="white" transform="translate(0 0.5)"/>
</clipPath>
</defs>
</svg>
