<svg width="512" height="513" viewBox="0 0 512 513" fill="none" xmlns="http://www.w3.org/2000/svg">
<g clip-path="url(#clip0_86_41)">
<path fill-rule="evenodd" clip-rule="evenodd" d="M0 0.5H512V512.5H0V0.5ZM134.623 428.365C145.965 452.42 168.308 472.352 206.797 472.352C249.416 472.352 278.627 449.669 278.627 399.834V235.558H230.512V399.154C230.512 423.21 220.544 429.394 204.734 429.394C188.24 429.394 181.364 418.055 173.805 404.653L134.623 428.365ZM343.939 400.526L304.763 423.209C318.852 451.049 347.722 472.356 392.401 472.356C438.11 472.356 472.135 448.644 472.135 405.337C472.135 365.127 449.107 347.257 408.208 329.728L396.18 324.573C375.561 315.637 366.625 309.793 366.625 295.358C366.625 283.674 375.561 274.739 389.652 274.739C403.399 274.739 412.332 280.58 420.581 295.358L458.043 271.301C442.236 243.462 420.24 232.807 389.652 232.807C346.689 232.807 319.195 260.303 319.195 296.39C319.195 335.571 342.222 354.129 376.937 368.905L388.962 374.064C410.959 383.684 424.018 389.527 424.018 406.024C424.018 419.772 411.305 429.74 391.369 429.74C367.656 429.74 354.252 417.368 343.939 400.526Z" fill="#575858"/>
</g>
<defs>
<clipPath id="clip0_86_41">
<rect y="0.5" width="512" height="512" rx="55" fill="white"/>
</clipPath>
</defs>
</svg>
