<svg width="512" height="513" viewBox="0 0 512 513" fill="none" xmlns="http://www.w3.org/2000/svg">
<path fill-rule="evenodd" clip-rule="evenodd" d="M301.471 0.5C297.769 0.5 294.331 1.2965 291.158 2.35844C297.901 6.87177 301.604 12.8453 303.455 19.6153C303.587 20.5445 303.852 21.2083 303.984 22.1375C304.117 22.934 304.248 23.7304 304.248 24.5269C304.777 36.2085 301.207 37.6687 298.695 44.5715C294.86 53.4654 295.918 63.0231 300.546 70.7223C300.943 71.6515 301.471 72.7135 302.133 73.6427C297.108 40.0581 325.008 35.0138 330.164 24.5269C330.561 15.3675 323.024 9.26119 317.074 5.01334C311.388 1.56197 306.232 0.5 301.471 0.5ZM343.519 8.06649C342.99 11.1196 343.387 10.3232 343.255 11.9161C343.122 12.9781 343.122 14.3055 342.99 15.3675C342.726 16.4294 342.461 17.4914 342.065 18.5534C341.801 19.6153 341.404 20.6773 341.007 21.7392C340.478 22.8013 340.082 23.7304 339.553 24.7924C339.156 25.3236 338.892 25.8543 338.495 26.3854C338.231 26.7836 337.966 27.1818 337.702 27.5801C337.04 28.5093 336.379 29.4385 335.718 30.235C334.925 31.0315 334.264 31.9606 333.338 32.6244V32.7573C332.545 33.4211 331.751 34.2175 330.826 34.8812C328.049 37.0051 324.876 38.5981 321.967 40.5893C321.041 41.253 320.116 41.784 319.322 42.5805C318.397 43.2442 317.603 43.9079 316.81 44.7044C315.884 45.5009 315.223 46.2974 314.43 47.2266C313.769 48.0231 312.975 48.9522 312.447 49.8815C311.785 50.8107 311.124 51.7399 310.595 52.6691C310.066 53.7311 309.67 54.6603 309.141 55.7222C308.744 56.7842 308.348 57.7134 308.083 58.7754C307.686 59.9701 307.422 61.0321 307.158 62.0941C307.025 62.6253 307.025 63.2887 306.893 63.8197C306.761 64.3509 306.761 64.8817 306.629 65.4127C306.629 66.4746 306.497 67.6694 306.497 68.7313C306.497 69.5278 306.497 70.3242 306.629 71.1207C306.629 72.1827 306.761 73.2446 307.026 74.4394C307.158 75.5013 307.422 76.5633 307.687 77.6253C308.084 78.6872 308.348 79.7492 308.745 80.8111C309.009 81.4749 309.406 82.1386 309.67 82.6695L279.259 70.8552C274.102 69.395 269.077 68.0676 263.92 66.8729C261.144 66.2092 258.367 65.5454 255.59 64.8817C247.657 63.2888 239.591 62.0941 231.525 61.2976C231.261 61.2976 231.129 61.1647 230.864 61.1647C222.931 60.3682 215.13 59.97 207.196 59.97C201.378 59.97 195.56 60.2352 189.875 60.6337C181.809 61.1649 173.743 62.2267 165.677 63.5541C163.694 63.8194 161.711 64.2178 159.727 64.6161C155.628 65.4125 151.662 66.3417 147.827 67.271C145.844 67.8022 143.86 68.3329 141.877 68.8639C139.894 69.6603 138.042 70.5896 136.191 71.3861C134.737 72.0498 133.282 72.7135 131.828 73.3773C131.564 73.5102 131.299 73.5102 131.167 73.6426C129.845 74.3063 128.654 74.8372 127.465 75.501C127.068 75.6339 126.803 75.7663 126.539 75.8992C125.084 76.5629 123.63 77.3594 122.44 78.0231C121.514 78.4214 120.589 78.9524 119.795 79.3506C119.399 79.6159 118.87 79.8818 118.605 80.0143C117.415 80.678 116.225 81.3417 115.168 82.0055C113.978 82.6692 112.92 83.3329 111.994 83.9966C111.069 84.6604 110.143 85.1914 109.35 85.8551C109.217 85.988 109.085 85.988 108.953 86.1204C108.16 86.6516 107.234 87.3151 106.441 87.9788C106.441 87.9788 106.308 88.1118 106.176 88.2441C105.515 88.7753 104.854 89.3061 104.193 89.837C103.929 89.97 103.664 90.2353 103.4 90.3682C102.739 90.8994 102.078 91.563 101.416 92.0939C101.284 92.3592 101.02 92.4922 100.887 92.6251C100.094 93.4216 99.3006 94.0853 98.5073 94.8818C98.3748 94.8818 98.3748 95.0147 98.243 95.1471C97.4497 95.8108 96.6563 96.6073 95.863 97.4038C95.7305 97.5367 95.7305 97.669 95.5987 97.669C94.9376 98.3327 94.2765 98.9965 93.6153 99.7929C93.3511 100.058 92.9542 100.324 92.6898 100.589C92.0287 101.386 91.2353 102.182 90.442 102.979C90.3095 103.244 90.0453 103.377 89.9129 103.643C88.8551 104.705 87.9295 105.767 86.8717 106.828C86.7392 106.961 86.6074 107.094 86.475 107.227C84.3594 109.483 82.1116 111.74 79.7316 113.731C77.3515 115.855 74.8392 117.846 72.3269 119.572C69.6824 121.43 67.1702 123.023 64.3935 124.616C61.749 126.076 58.9722 127.404 56.0633 128.599C53.2866 129.793 50.3776 130.855 47.4687 131.785C41.9152 132.979 36.2296 135.236 31.3372 135.634C30.2795 135.634 29.0894 135.899 28.0316 136.032C26.8416 136.298 25.7838 136.564 24.726 136.829C23.6683 137.227 22.6104 137.625 21.5526 138.024C20.4948 138.422 19.4371 138.953 18.3793 139.484C17.4537 140.148 16.3959 140.679 15.4703 141.342C14.5447 142.006 13.6191 142.802 12.8258 143.599C11.9002 144.263 10.9746 145.192 10.1813 145.988C9.38794 146.918 8.59458 147.714 7.93348 148.643C7.27237 149.705 6.47901 150.634 5.95009 151.696C5.28898 152.626 4.62787 153.688 4.09895 154.749C3.56984 155.944 3.04116 157.006 2.64449 158.201C2.24781 159.263 1.85113 160.458 1.45446 161.652C1.19021 162.714 0.925346 163.776 0.793348 164.838C0.793348 164.971 0.66092 165.103 0.66092 165.236C0.396675 166.431 0.396674 168.024 0.264241 168.821C0.131812 169.75 0 170.546 0 171.475C0 172.007 4.11626e-07 172.67 0.132429 173.201C0.264857 174.13 0.396669 174.927 0.661538 175.723C0.925781 176.52 1.19065 177.316 1.58708 178.113V178.246C1.98375 179.042 2.51268 179.839 3.04154 180.635C3.57065 181.432 4.09939 182.228 4.76049 183.025C5.4216 183.688 6.21496 184.485 7.00831 185.148C7.80167 185.945 8.59502 186.609 9.52056 187.272C12.694 190.06 13.4873 190.989 17.5863 193.113C18.2474 193.511 18.9086 193.777 19.7019 194.175C19.8344 194.175 19.9662 194.308 20.0986 194.308C20.0986 194.573 20.0986 194.706 20.2311 194.972C20.3635 196.034 20.6277 197.096 20.8922 198.158C21.1564 199.352 21.5533 200.414 21.95 201.344C22.3467 202.14 22.6111 202.937 23.0078 203.733C23.1402 203.998 23.272 204.264 23.4045 204.397C23.9336 205.459 24.4623 206.388 24.9911 207.317C25.6523 208.246 26.3134 209.176 26.9745 210.105C27.6356 210.901 28.429 211.831 29.2223 212.627C30.0157 213.423 30.809 214.087 31.7346 214.884C31.7346 214.884 31.8671 215.017 31.9989 215.017C32.7922 215.68 33.5856 216.344 34.3789 216.875C35.3045 217.539 36.2301 218.07 37.2879 218.601C38.2135 219.132 39.2712 219.663 40.329 220.061C41.1224 220.459 42.0479 220.725 42.9735 220.99C43.106 221.123 43.2378 221.123 43.5026 221.256C44.0317 221.389 44.6926 221.521 45.2215 221.654C44.8249 228.822 44.6924 235.592 45.7506 237.982C46.9406 240.636 52.7585 232.539 58.5764 223.247C57.7831 232.406 57.2542 243.159 58.5764 246.344C60.0309 249.663 67.9644 239.309 74.8401 227.893C168.587 206.123 254.137 271.168 263.128 363.028C261.409 348.691 243.823 340.726 235.758 342.718C231.791 352.541 225.047 365.152 214.205 372.984C215.131 364.222 214.734 355.196 212.883 346.434C209.974 358.647 204.288 370.063 196.487 379.886C183.926 380.815 171.364 374.709 164.753 365.55C164.224 365.152 164.092 364.355 163.695 363.824C163.298 362.895 162.902 361.966 162.637 361.036C162.241 360.107 161.976 359.178 161.844 358.249C161.711 357.32 161.711 356.39 161.711 355.328C161.711 354.665 161.711 354.001 161.711 353.337C161.844 352.408 162.108 351.479 162.373 350.55C162.637 349.62 162.902 348.691 163.298 347.762C163.827 346.833 164.224 345.903 164.885 344.974C167.133 338.602 167.133 333.425 163.034 330.372C162.24 329.841 161.447 329.443 160.521 329.045C159.992 328.912 159.331 328.647 158.803 328.514C158.406 328.381 158.141 328.248 157.745 328.115C156.819 327.85 155.894 327.584 154.968 327.452C154.042 327.186 153.117 327.053 152.191 327.053C151.266 326.92 150.208 326.788 149.282 326.788C148.621 326.788 147.96 326.921 147.299 326.921C146.241 326.921 145.316 327.054 144.39 327.319C143.464 327.452 142.539 327.585 141.613 327.85C140.688 328.116 139.762 328.382 138.837 328.78C137.911 329.178 137.118 329.576 136.192 329.974C135.399 330.373 134.605 330.904 133.68 331.302C102.871 351.479 121.251 398.736 142.274 412.409C134.341 413.869 126.275 415.595 124.027 417.321C123.895 417.454 123.763 417.586 123.763 417.586C129.449 421.037 135.399 423.958 141.614 426.48C150.076 429.268 159.067 431.79 163.034 432.852V432.985C174.009 435.241 185.116 436.038 196.355 435.374C254.93 431.259 302.928 386.524 311.655 327.585C311.919 328.78 312.184 329.842 312.448 331.036C312.845 333.426 313.374 335.948 313.638 338.47V338.603C313.902 339.798 314.035 340.993 314.167 342.054V342.586C314.3 343.78 314.431 344.975 314.431 346.037C314.564 347.497 314.696 348.957 314.696 350.418V352.542C314.696 353.205 314.828 354.002 314.828 354.666C314.828 355.462 314.696 356.258 314.696 357.055V358.913C314.696 359.843 314.563 360.639 314.563 361.568C314.563 362.099 314.563 362.63 314.431 363.294C314.431 364.223 314.298 365.152 314.298 366.214C314.166 366.613 314.166 367.011 314.166 367.409C314.033 368.471 313.901 369.4 313.769 370.462C313.769 370.861 313.769 371.259 313.637 371.657C313.504 372.984 313.24 374.179 313.108 375.507V375.64V375.773C312.843 376.967 312.578 378.295 312.314 379.489V379.888C312.05 381.082 311.785 382.277 311.521 383.472C311.521 383.605 311.388 383.87 311.388 384.003C311.124 385.198 310.859 386.392 310.463 387.587V387.985C310.066 389.313 309.669 390.507 309.405 391.702C309.273 391.835 309.273 391.967 309.273 391.967C308.876 393.295 308.479 394.622 308.083 395.95C307.554 397.277 307.157 398.472 306.628 399.799C306.099 401.127 305.703 402.454 305.174 403.649C304.645 404.977 304.116 406.171 303.587 407.499H303.454C302.925 408.693 302.397 410.021 301.735 411.216C301.603 411.614 301.471 411.879 301.339 412.145C301.206 412.278 301.206 412.41 301.075 412.543C292.48 429.933 279.786 445.198 263.919 457.145C262.862 457.809 261.804 458.606 260.746 459.402C260.482 459.667 260.085 459.8 259.82 460.066C258.895 460.73 257.969 461.393 256.911 462.057L257.308 462.854H257.441C259.292 462.588 261.143 462.322 262.994 462.057H263.126C266.564 461.526 270.002 460.862 273.44 460.199C274.365 460.065 275.423 459.8 276.349 459.535C277.01 459.402 277.539 459.27 278.2 459.137C279.126 459.003 280.051 458.738 280.977 458.605C281.77 458.34 282.563 458.207 283.357 457.942C296.579 454.756 309.405 450.375 321.702 445.198C300.678 474.004 272.514 497.234 239.59 512.5C254.796 511.438 270.002 508.916 284.679 504.668C337.966 488.871 382.79 452.897 409.631 404.445C404.21 435.11 392.046 464.313 374.063 489.801C386.889 481.305 398.657 471.482 409.367 460.331C438.985 429.269 458.422 389.843 465.034 347.498C469.529 368.471 470.852 390.109 468.868 411.481C564.334 277.806 476.802 139.22 440.175 102.715C440.043 102.45 439.911 102.317 439.911 102.051C439.779 102.184 439.779 102.184 439.779 102.317C439.779 102.184 439.779 102.184 439.646 102.051C439.646 103.644 439.514 105.237 439.382 106.83C438.985 109.883 438.589 112.804 438.06 115.724C437.399 118.645 436.605 121.565 435.812 124.485C434.886 127.273 433.828 130.193 432.638 132.981C431.448 135.636 430.126 138.424 428.672 141.079C427.217 143.601 425.63 146.256 423.912 148.645C422.193 151.167 420.342 153.557 418.49 155.813C416.507 158.203 414.391 160.327 412.276 162.451C410.954 163.645 409.764 164.707 408.441 165.769C407.383 166.698 406.458 167.495 405.4 168.424C403.02 170.282 400.64 172.008 397.996 173.601C395.483 175.194 392.839 176.787 390.194 178.114C387.418 179.442 384.641 180.637 381.864 181.831C379.087 182.893 376.178 183.822 373.269 184.619C370.361 185.415 367.319 186.079 364.41 186.61C361.369 187.141 358.328 187.407 355.419 187.672C353.304 187.805 351.188 187.937 349.072 187.937C346.031 187.937 342.99 187.672 340.081 187.406C337.04 187.141 333.999 186.742 331.09 186.079C328.049 185.548 325.14 184.751 322.231 183.822H322.098C325.007 183.557 327.916 183.291 330.825 182.76C333.866 182.229 336.775 181.565 339.684 180.769C342.593 179.972 345.502 179.043 348.279 177.981C351.188 176.919 353.965 175.592 356.609 174.264C359.386 172.937 361.898 171.477 364.542 169.884C367.055 168.158 369.567 166.432 371.947 164.574C374.327 162.716 376.575 160.724 378.691 158.6C380.938 156.609 382.922 154.353 384.905 152.096C386.888 149.707 388.74 147.317 390.459 144.928C390.723 144.529 390.988 143.998 391.252 143.6C392.574 141.476 393.896 139.352 395.086 137.228C396.541 134.574 397.863 131.919 399.053 129.131C400.243 126.343 401.301 123.556 402.227 120.635C403.152 117.848 403.813 114.927 404.474 112.007C405.004 108.954 405.532 106.033 405.797 103.113C406.061 100.06 406.326 97.0066 406.326 94.0862C406.326 91.9623 406.193 89.8384 406.061 87.7145C405.797 84.6613 405.4 81.7409 405.004 78.8205C404.475 75.7674 403.814 72.847 403.02 69.9265C402.095 67.1389 401.169 64.2185 400.111 61.4309C399.054 58.6432 397.731 55.8556 396.409 53.2006C394.955 50.5457 393.5 47.8908 391.913 45.3687C390.195 42.8465 388.476 40.4571 386.624 38.0677C384.641 35.811 382.658 33.5543 380.542 31.2977C379.484 30.2357 378.294 29.041 377.104 27.9791C371.154 23.3329 364.94 18.9523 358.725 14.97C357.799 14.4388 357.006 14.0408 356.081 13.6425C351.717 10.8549 347.618 9.39391 343.519 8.06649Z" fill="#575858"/>
</svg>
