<svg width="512" height="513" viewBox="0 0 512 513" fill="none" xmlns="http://www.w3.org/2000/svg">
<path d="M239.234 0.637781C238.133 0.737864 234.629 1.08815 231.476 1.33836C158.755 7.8938 90.6385 47.1264 47.4964 107.426C23.4729 140.954 8.10792 178.986 2.30225 219.269C0.250244 233.331 0 237.484 0 256.55C0 275.616 0.250244 279.769 2.30225 293.831C16.2158 389.961 84.6326 470.728 177.423 500.653C194.039 506.007 211.557 509.66 231.476 511.862C239.234 512.713 272.766 512.713 280.524 511.862C314.908 508.059 344.036 499.552 372.764 484.89C377.168 482.638 378.019 482.037 377.419 481.537C377.018 481.237 358.25 456.066 335.728 425.64L294.788 370.345L243.488 294.432C215.26 252.697 192.038 218.569 191.837 218.569C191.637 218.519 191.437 252.247 191.337 293.431C191.187 365.541 191.137 368.443 190.236 370.144C188.935 372.596 187.934 373.597 185.831 374.698C184.23 375.499 182.829 375.649 175.271 375.649H166.613L164.31 374.198C162.809 373.247 161.708 371.996 160.957 370.545L159.906 368.293L160.006 267.96L160.156 167.576L161.708 165.625C162.509 164.574 164.21 163.223 165.412 162.572C167.464 161.571 168.264 161.471 176.923 161.471C187.133 161.471 188.834 161.872 191.487 164.774C192.238 165.575 220.015 207.409 253.247 257.801C286.48 308.193 331.924 377 354.246 410.778L394.786 472.179L396.838 470.828C415.005 459.018 434.224 442.204 449.439 424.69C481.821 387.509 502.691 342.171 509.698 293.831C511.75 279.769 512 275.616 512 256.55C512 237.484 511.75 233.331 509.698 219.269C495.784 123.139 427.367 42.3724 334.577 12.4476C318.211 7.14318 300.794 3.49015 281.275 1.28832C276.47 0.787906 243.388 0.237449 239.234 0.637781ZM344.036 155.466C346.438 156.667 348.39 158.969 349.091 161.371C349.491 162.672 349.591 190.495 349.491 253.197L349.341 343.172L333.476 318.852L317.56 294.532V229.127C317.56 186.842 317.76 163.073 318.061 161.922C318.861 159.119 320.613 156.917 323.015 155.616C325.067 154.566 325.818 154.465 333.676 154.465C341.083 154.465 342.384 154.566 344.036 155.466Z" fill="#575858"/>
</svg>
