<svg width="512" height="513" viewBox="0 0 512 513" fill="none" xmlns="http://www.w3.org/2000/svg">
<g clip-path="url(#clip0_87_237)">
<path fill-rule="evenodd" clip-rule="evenodd" d="M50.9622 352.434C45.7534 344.218 45.6747 333.753 50.7593 325.458L242.205 13.1714C252.853 -4.19785 278.565 -2.67912 287.095 15.8227L461.989 395.211C468.478 409.287 461.008 425.85 446.16 430.304L174.099 511.923C163.153 515.206 151.358 510.806 145.239 501.154L50.9622 352.434ZM264.293 104.481C266.138 95.2945 278.726 93.9698 282.443 102.571L403.083 381.725C405.353 386.981 402.527 393.043 397.041 394.679L209.067 450.792C202.158 452.854 195.539 446.817 196.959 439.747L264.293 104.481Z" fill="#575858"/>
</g>
<defs>
<clipPath id="clip0_87_237">
<rect width="512" height="512" fill="white" transform="translate(0 0.5)"/>
</clipPath>
</defs>
</svg>
