<svg width="512" height="513" viewBox="0 0 512 513" fill="none" xmlns="http://www.w3.org/2000/svg">
<path d="M420.967 176.147C415.655 174.319 410.152 172.589 404.485 170.953C405.416 167.152 406.271 163.4 407.031 159.712C419.508 99.1498 411.35 50.3605 383.495 34.297C356.785 18.8942 313.103 34.9541 268.986 73.3476C264.744 77.0394 260.489 80.9482 256.237 85.0448C253.404 82.3344 250.575 79.7152 247.753 77.2099C201.517 36.1571 155.173 18.8568 127.345 34.9668C100.661 50.4143 92.7584 96.2808 103.989 153.676C105.074 159.22 106.341 164.881 107.775 170.637C101.216 172.499 94.8837 174.484 88.825 176.596C34.6187 195.494 0 225.113 0 255.836C0 287.567 37.1632 319.393 93.6233 338.691C98.0789 340.214 102.702 341.654 107.467 343.021C105.92 349.246 104.575 355.347 103.446 361.297C92.7375 417.696 101.1 462.479 127.713 477.829C155.203 493.681 201.337 477.387 246.26 438.118C249.811 435.014 253.374 431.723 256.944 428.272C261.571 432.728 266.191 436.945 270.786 440.9C314.299 478.345 357.276 493.465 383.865 478.072C411.326 462.175 420.251 414.067 408.664 355.536C407.779 351.066 406.75 346.499 405.593 341.851C408.833 340.893 412.014 339.905 415.115 338.877C473.811 319.429 512 287.99 512 255.836C512 225.002 476.265 195.184 420.967 176.147ZM408.236 318.115C405.436 319.042 402.564 319.938 399.637 320.806C393.157 300.293 384.411 278.479 373.709 255.943C383.922 233.943 392.329 212.408 398.628 192.028C403.865 193.543 408.949 195.142 413.847 196.829C461.227 213.139 490.128 237.254 490.128 255.836C490.128 275.629 458.916 301.323 408.236 318.115ZM387.208 359.784C392.331 385.666 393.063 409.065 389.669 427.358C386.62 443.795 380.487 454.754 372.905 459.143C356.769 468.483 322.264 456.343 285.05 424.32C280.784 420.649 276.487 416.729 272.177 412.581C286.603 396.802 301.022 378.459 315.094 358.088C339.845 355.892 363.23 352.301 384.436 347.399C385.481 351.612 386.408 355.744 387.208 359.784ZM174.552 457.529C158.788 463.097 146.232 463.256 138.642 458.88C122.492 449.565 115.778 413.609 124.936 365.376C125.985 359.852 127.234 354.178 128.673 348.378C149.647 353.016 172.86 356.354 197.671 358.365C211.838 378.299 226.673 396.622 241.622 412.665C238.356 415.819 235.103 418.821 231.867 421.649C212.003 439.013 192.096 451.333 174.552 457.529ZM100.697 317.994C75.7316 309.461 55.1141 298.371 40.9817 286.269C28.2829 275.394 21.8716 264.597 21.8716 255.836C21.8716 237.192 49.6669 213.412 96.0247 197.25C101.65 195.288 107.538 193.44 113.648 191.704C120.055 212.545 128.46 234.334 138.602 256.368C128.329 278.729 119.805 300.866 113.335 321.951C108.979 320.699 104.758 319.381 100.697 317.994ZM125.454 149.476C115.832 100.301 122.222 63.2051 138.303 53.8965C155.432 43.9801 193.309 58.1188 233.23 93.5659C235.782 95.8315 238.343 98.2029 240.913 100.656C226.037 116.63 211.337 134.815 197.296 154.631C173.216 156.863 150.166 160.448 128.974 165.249C127.641 159.89 126.461 154.624 125.454 149.476ZM346.308 204.01C341.242 195.259 336.041 186.715 330.738 178.405C347.074 180.47 362.726 183.211 377.424 186.566C373.011 200.708 367.511 215.495 361.037 230.653C356.393 221.836 351.481 212.946 346.308 204.01ZM256.244 116.288C266.333 127.218 276.436 139.421 286.374 152.661C276.36 152.188 266.222 151.942 256 151.942C245.875 151.942 235.812 152.182 225.86 152.647C235.807 139.53 245.998 127.343 256.244 116.288ZM165.604 204.161C160.543 212.937 155.722 221.779 151.151 230.637C144.781 215.531 139.332 200.677 134.881 186.334C149.489 183.065 165.067 180.392 181.299 178.366C175.922 186.754 170.678 195.36 165.604 204.16V204.161ZM181.767 334.866C164.996 332.995 149.184 330.459 134.58 327.281C139.102 312.682 144.671 297.51 151.175 282.079C155.758 290.931 160.599 299.777 165.69 308.571H165.691C170.878 317.531 176.251 326.307 181.767 334.866ZM256.849 396.926C246.483 385.741 236.143 373.369 226.044 360.06C235.847 360.445 245.842 360.642 256 360.642C266.436 360.642 276.752 360.406 286.907 359.954C276.937 373.503 266.87 385.894 256.849 396.926ZM361.246 281.293C368.089 296.891 373.858 311.983 378.438 326.333C363.593 329.719 347.565 332.447 330.678 334.474C335.993 326.051 341.24 317.361 346.395 308.421C351.611 299.377 356.563 290.319 361.246 281.293ZM327.449 297.494C319.446 311.371 311.229 324.619 302.887 337.123C287.694 338.21 271.998 338.769 256 338.769C240.067 338.769 224.568 338.274 209.644 337.305C200.966 324.637 192.571 311.35 184.618 297.613H184.62C176.689 283.914 169.389 270.099 162.774 256.361C169.387 242.591 176.668 228.761 184.554 215.086L184.552 215.088C192.459 201.377 200.78 188.155 209.378 175.566C224.605 174.415 240.219 173.814 255.999 173.814H256C271.851 173.814 287.485 174.419 302.708 175.58C311.174 188.078 319.439 201.257 327.377 214.97C335.405 228.837 342.78 242.576 349.449 256.05C342.8 269.756 335.442 283.633 327.449 297.494ZM372.569 53.2458C389.715 63.1331 396.382 103.008 385.61 155.297C384.923 158.634 384.149 162.032 383.309 165.476C362.067 160.575 339.001 156.928 314.851 154.662C300.782 134.628 286.203 116.414 271.57 100.646C275.504 96.8614 279.433 93.2524 283.345 89.8467C321.144 56.9514 356.473 43.9637 372.569 53.2458ZM256 210.116C281.25 210.116 301.72 230.585 301.72 255.836C301.72 281.086 281.25 301.556 256 301.556C230.75 301.556 210.28 281.086 210.28 255.836C210.28 230.585 230.75 210.116 256 210.116Z" fill="#575858"/>
</svg>
