<svg width="512" height="513" viewBox="0 0 512 513" fill="none" xmlns="http://www.w3.org/2000/svg">
<g clip-path="url(#clip0_87_238)">
<path d="M255.802 90.0093C164.07 90.0093 89.4407 164.697 89.4407 256.499C89.4407 348.303 164.07 422.991 255.802 422.991C347.532 422.991 422.162 348.303 422.162 256.499C422.162 164.697 347.532 90.0093 255.802 90.0093ZM255.802 342.661C208.248 342.661 169.709 304.09 169.709 256.499C169.709 208.91 208.248 170.339 255.802 170.339C303.355 170.339 341.894 208.91 341.894 256.499C341.894 304.09 303.355 342.661 255.802 342.661Z" fill="#575858"/>
<path fill-rule="evenodd" clip-rule="evenodd" d="M269.74 62.6629V0.5C404.749 7.72392 512 119.586 512 256.499C512 393.413 404.749 505.245 269.74 512.5V450.337C370.36 443.143 450.04 359 450.04 256.499C450.04 154 370.36 69.8559 269.74 62.6629ZM109.079 383.617C82.4056 352.798 65.212 313.547 62.145 270.452H0C3.22188 330.754 27.3239 385.477 65.0881 427.61L109.048 383.617H109.079ZM241.857 512.5V450.337C198.765 447.267 159.544 430.092 128.751 403.366L84.7917 447.36C126.924 485.185 181.601 509.276 241.827 512.5H241.857Z" fill="#575858"/>
</g>
<defs>
<clipPath id="clip0_87_238">
<rect width="512" height="512" fill="white" transform="translate(0 0.5)"/>
</clipPath>
</defs>
</svg>
