<svg width="512" height="513" viewBox="0 0 512 513" fill="none" xmlns="http://www.w3.org/2000/svg">
<g clip-path="url(#clip0_87_228)">
<path fill-rule="evenodd" clip-rule="evenodd" d="M472 0.5H40C17.9086 0.5 0 18.4086 0 40.5V472.5C0 494.591 17.9086 512.5 40 512.5H472C494.091 512.5 512 494.591 512 472.5V40.5C512 18.4086 494.091 0.5 472 0.5ZM301.036 456.69V401.45C311.056 409.852 321.94 416.152 333.69 420.352C345.438 424.554 357.3 426.654 369.278 426.654C376.304 426.654 382.438 426.02 387.678 424.754C392.918 423.488 397.296 421.734 400.808 419.49C404.32 417.246 406.942 414.598 408.668 411.55C410.396 408.5 411.26 405.19 411.26 401.624C411.26 396.79 409.878 392.474 407.114 388.676C404.35 384.878 400.578 381.368 395.798 378.146C391.018 374.924 385.346 371.818 378.78 368.826C372.216 365.832 365.132 362.784 357.53 359.676C338.18 351.62 323.756 341.78 314.254 330.158C304.75 318.534 300 304.494 300 288.038C300 275.148 302.592 264.072 307.774 254.808C312.958 245.544 320.012 237.92 328.938 231.934C337.864 225.95 348.202 221.548 359.95 218.73C371.698 215.91 384.136 214.5 397.266 214.5C410.166 214.5 421.598 215.276 431.56 216.83C441.522 218.384 450.708 220.772 459.116 223.994V275.608C454.97 272.732 450.448 270.2 445.554 268.014C440.658 265.826 435.62 264.014 430.438 262.576C425.254 261.136 420.1 260.072 414.974 259.382C409.85 258.692 404.984 258.346 400.376 258.346C394.042 258.346 388.282 258.95 383.1 260.158C377.916 261.368 373.54 263.064 369.97 265.252C366.4 267.438 363.634 270.056 361.676 273.106C359.718 276.156 358.74 279.578 358.74 283.376C358.74 287.52 359.834 291.23 362.022 294.51C364.21 297.79 367.32 300.898 371.352 303.832C375.382 306.768 380.278 309.644 386.036 312.464C391.796 315.284 398.302 318.188 405.558 321.182C415.464 325.324 424.362 329.726 432.252 334.386C440.14 339.048 446.908 344.312 452.55 350.182C458.194 356.05 462.514 362.754 465.508 370.292C468.502 377.83 470 386.606 470 396.618C470 410.428 467.38 422.022 462.14 431.4C456.898 440.78 449.786 448.376 440.802 454.188C431.82 459.998 421.366 464.17 409.446 466.702C397.526 469.234 384.942 470.5 371.698 470.5C358.106 470.5 345.178 469.35 332.912 467.048C320.646 464.746 310.02 461.294 301.036 456.69ZM280 263.984H208.964V466.5H152.689V263.984H82V218.5H280V263.984Z" fill="#575858"/>
</g>
<defs>
<clipPath id="clip0_87_228">
<rect width="512" height="512" fill="white" transform="translate(0 0.5)"/>
</clipPath>
</defs>
</svg>
